<svg xmlns="http://www.w3.org/2000/svg" width="30" height="30" viewBox="0 0 30 30" fill="none">
<path fill-rule="evenodd" clip-rule="evenodd" d="M15 30C6.71573 30 0 23.2843 0 15C0 6.71573 6.71573 0 15 0C23.2843 0 30 6.71573 30 15C30 23.2843 23.2843 30 15 30ZM15 24.5833C15.6904 24.5833 16.25 24.0237 16.25 23.3333C16.25 22.643 15.6904 22.0833 15 22.0833C14.3096 22.0833 13.75 22.643 13.75 23.3333C13.75 24.0237 14.3096 24.5833 15 24.5833ZM13.75 6.59314V17.5735C13.75 18.2233 14.3096 18.75 15 18.75C15.6904 18.75 16.25 18.2233 16.25 17.5735V6.59314C16.25 5.94339 15.6904 5.41667 15 5.41667C14.3096 5.41667 13.75 5.94339 13.75 6.59314Z" fill="#C20000"/>
</svg>